# xmcd CD database file
# Copyright (C) 1993-1998 Ti Kan
# 
# Track frame offsets:
#     150
#     23377
#     44130
#     62605
#     79485
#     99887
#     118517
#     131920
#     147770
#     163425
#     180255
#     199825
#     219252
#     237112
#     256227
#     273690
# 
# Disc length: 3943 seconds
# 
# Revision: 1
# Processed by: cddbd v1.4b41PL1 Copyright (c) Steve Scherf et al.
# Submitted via: DiscPlay 4.0.4
# 
DISCID=e30f6510
DTITLE=LeAnn Rimes - Sittin' On Top Of The World
DYEAR=1900
DGENRE=
TTITLE0=How Do I Live
TTITLE1=Commitment
TTITLE2=Looking Through Your Eyes
TTITLE3=Undeniable
TTITLE4=Feels Like Home
TTITLE5=Surrender
TTITLE6=These Arms Of Mine
TTITLE7=Nothin' New Under The Moon
TTITLE8=When Am I Gonna Get Over You
TTITLE9=Rock Me
TTITLE10=More Than Anyone Deserves
TTITLE11=Insensitive
TTITLE12=All The Lovin' And Hurtin'
TTITLE13=Sittin' On Top Of The World
TTITLE14=The Heart Never Forgets
TTITLE15=Purple Rain
EXTD=
EXTT0=
EXTT1=
EXTT2=
EXTT3=
EXTT4=
EXTT5=
EXTT6=
EXTT7=
EXTT8=
EXTT9=
EXTT10=
EXTT11=
EXTT12=
EXTT13=
EXTT14=
EXTT15=
PLAYORDER=
